<?xml version="1.0" standalone="no"?><!DOCTYPE svg PUBLIC "-//W3C//DTD SVG 1.1//EN" "http://www.w3.org/Graphics/SVG/1.1/DTD/svg11.dtd"><svg t="1690940639095" class="icon" viewBox="0 0 1024 1024" version="1.1" xmlns="http://www.w3.org/2000/svg" p-id="2898" xmlns:xlink="http://www.w3.org/1999/xlink" width="200" height="200"><path d="M192 400h39.648c98.4 0 89.872-160 4.576-160H144v208h48v-48z m0-112h31.472c34 0 37.2 64-3.312 64H192v-64z m288 512h80V640h160v-80H480v240z m-32-448.032L392.288 240H336v208h48v-112.032L444.528 448H496V240h-48v111.968zM144 80v80h640v487.648L568.352 864H224V528H144v416h457.568L864 680.672V80H144z m472.768 209.968c23.04 0 31.28 14.032 33.328 30.032h52.128c-8.192-48-37.648-79.488-84.256-79.488-124.4 0-116.56 206.272-2.832 206.272 20 0 39.44-5.584 52-23.216L668.944 448H704v-96h-80v32h30.576c-4.272 32-75.52 35.328-75.52-38.24 0-13.712-0.96-55.792 37.712-55.792z" fill="#565D64" p-id="2899"></path></svg>