<?xml version="1.0" standalone="no"?><!DOCTYPE svg PUBLIC "-//W3C//DTD SVG 1.1//EN" "http://www.w3.org/Graphics/SVG/1.1/DTD/svg11.dtd"><svg t="1690940703367" class="icon" viewBox="0 0 1024 1024" version="1.1" xmlns="http://www.w3.org/2000/svg" p-id="3961" xmlns:xlink="http://www.w3.org/1999/xlink" width="200" height="200"><path d="M214.944 448C274.272 448 288 418.816 288 360.544V240h-48v132.4C240 407.072 191.632 416 191.632 368h-48c0 48 14.928 80 71.312 80zM144 80v80h640v487.648L568.16 864H224V528H144v416h457.392L864 680.672V80H144z m336 720h80V640h160v-80H480v240z m104.592-510.032c23.04 0 31.28 14.032 33.328 30.032h52.128c-8.192-48-37.648-79.488-84.256-79.488-124.4 0-116.56 206.272-2.832 206.272 20 0 39.44-5.584 52-23.216L636.768 448H672v-96h-80v32h30.4c-4.272 32-75.52 35.328-75.52-38.24 0-13.712-0.96-55.792 37.712-55.792zM407.472 400c98.4 0 89.872-160 4.576-160H320v208h48v-48h39.472zM368 288h31.296c34 0 37.216 64-3.312 64H368v-64z" fill="#565D64" p-id="3962"></path></svg>